<svg width="880" height="199" viewBox="0 0 880 199" fill="none" xmlns="http://www.w3.org/2000/svg">
<path d="M249.727 142C247.423 142 245.631 141.403 244.351 140.208C243.156 138.928 242.559 137.136 242.559 134.832V58.928C242.559 56.624 243.156 54.8747 244.351 53.68C245.631 52.4 247.423 51.76 249.727 51.76H296.447C298.239 51.76 299.604 52.2293 300.543 53.168C301.481 54.0213 301.951 55.3013 301.951 57.008C301.951 58.8 301.481 60.1653 300.543 61.104C299.604 62.0427 298.239 62.512 296.447 62.512H255.359V90.8H293.631C295.508 90.8 296.873 91.2693 297.727 92.208C298.665 93.1467 299.135 94.4693 299.135 96.176C299.135 97.968 298.665 99.3333 297.727 100.272C296.873 101.125 295.508 101.552 293.631 101.552H255.359V131.248H296.447C298.239 131.248 299.604 131.717 300.543 132.656C301.481 133.595 301.951 134.917 301.951 136.624C301.951 138.416 301.481 139.781 300.543 140.72C299.604 141.573 298.239 142 296.447 142H249.727ZM315.672 142.896C313.965 142.896 312.6 142.512 311.576 141.744C310.552 140.976 309.954 139.952 309.784 138.672C309.613 137.392 309.869 135.941 310.552 134.32L345.24 56.496C346.093 54.448 347.16 52.9973 348.44 52.144C349.805 51.2907 351.298 50.864 352.92 50.864C354.456 50.864 355.864 51.2907 357.144 52.144C358.509 52.9973 359.618 54.448 360.472 56.496L395.16 134.32C395.928 135.941 396.226 137.435 396.056 138.8C395.885 140.08 395.33 141.104 394.392 141.872C393.453 142.555 392.13 142.896 390.424 142.896C388.546 142.896 387.053 142.427 385.944 141.488C384.834 140.549 383.853 139.099 383 137.136L374.04 116.4L380.056 119.984H325.528L331.416 116.4L322.583 137.136C321.73 139.184 320.792 140.677 319.768 141.616C318.744 142.469 317.378 142.896 315.672 142.896ZM352.664 66.48L333.336 112.304L330.136 109.232H375.32L372.376 112.304L352.92 66.48H352.664ZM439.639 143.152C435.713 143.152 431.873 142.853 428.119 142.256C424.364 141.659 420.823 140.763 417.495 139.568C414.167 138.288 411.18 136.752 408.535 134.96C407.255 134.021 406.359 132.955 405.847 131.76C405.42 130.565 405.292 129.413 405.463 128.304C405.719 127.109 406.231 126.085 406.999 125.232C407.767 124.379 408.705 123.867 409.815 123.696C410.924 123.44 412.161 123.781 413.527 124.72C417.367 127.195 421.42 129.029 425.687 130.224C429.953 131.333 434.604 131.888 439.639 131.888C446.892 131.888 452.225 130.608 455.639 128.048C459.137 125.403 460.887 121.989 460.887 117.808C460.887 114.395 459.649 111.707 457.175 109.744C454.7 107.696 450.561 106.075 444.759 104.88L431.062 102.064C422.956 100.357 416.897 97.5413 412.887 93.616C408.961 89.6907 406.999 84.4 406.999 77.744C406.999 73.7333 407.809 70.064 409.431 66.736C411.137 63.408 413.484 60.5493 416.471 58.16C419.457 55.6853 423.041 53.808 427.223 52.528C431.404 51.248 435.969 50.608 440.919 50.608C446.209 50.608 451.159 51.2907 455.767 52.656C460.46 54.0213 464.641 56.112 468.311 58.928C469.42 59.696 470.145 60.6773 470.487 61.872C470.913 62.9813 470.999 64.0907 470.743 65.2C470.572 66.3093 470.103 67.248 469.335 68.016C468.567 68.784 467.585 69.2533 466.391 69.424C465.196 69.5093 463.873 69.0827 462.423 68.144C459.095 65.9253 455.681 64.3467 452.183 63.408C448.769 62.384 444.972 61.872 440.791 61.872C436.609 61.872 432.94 62.512 429.783 63.792C426.711 65.072 424.321 66.864 422.615 69.168C420.993 71.472 420.183 74.2027 420.183 77.36C420.183 80.944 421.335 83.8027 423.639 85.936C425.943 88.0693 429.783 89.6907 435.159 90.8L448.727 93.616C457.26 95.408 463.617 98.1813 467.799 101.936C471.98 105.691 474.071 110.683 474.071 116.912C474.071 120.923 473.26 124.549 471.639 127.792C470.017 130.949 467.713 133.68 464.727 135.984C461.74 138.288 458.113 140.08 453.847 141.36C449.665 142.555 444.929 143.152 439.639 143.152ZM515.347 142.896C513.213 142.896 511.549 142.299 510.354 141.104C509.245 139.909 508.691 138.203 508.691 135.984V95.408L511.635 103.856L480.019 59.952C479.08 58.672 478.653 57.3493 478.739 55.984C478.824 54.5333 479.379 53.3387 480.403 52.4C481.512 51.376 482.963 50.864 484.755 50.864C486.12 50.864 487.357 51.2053 488.467 51.888C489.661 52.5707 490.771 53.6373 491.795 55.088L517.139 90.288H514.067L539.411 55.088C540.52 53.552 541.587 52.4853 542.611 51.888C543.635 51.2053 544.914 50.864 546.451 50.864C548.243 50.864 549.608 51.3333 550.547 52.272C551.571 53.1253 552.083 54.2773 552.083 55.728C552.168 57.0933 551.656 58.544 550.547 60.08L519.187 103.856L521.875 95.408V135.984C521.875 140.592 519.699 142.896 515.347 142.896ZM595.481 142.896C593.347 142.896 591.683 142.299 590.489 141.104C589.379 139.909 588.825 138.245 588.825 136.112V62.896H561.689C559.897 62.896 558.489 62.4267 557.465 61.488C556.441 60.464 555.928 59.056 555.928 57.264C555.928 55.472 556.441 54.1067 557.465 53.168C558.489 52.2293 559.897 51.76 561.689 51.76H629.145C631.022 51.76 632.473 52.2293 633.497 53.168C634.521 54.1067 635.033 55.472 635.033 57.264C635.033 59.056 634.521 60.464 633.497 61.488C632.473 62.4267 631.022 62.896 629.145 62.896H602.009V136.112C602.009 138.245 601.454 139.909 600.345 141.104C599.321 142.299 597.699 142.896 595.481 142.896ZM634.672 142.896C632.965 142.896 631.6 142.512 630.576 141.744C629.552 140.976 628.954 139.952 628.784 138.672C628.613 137.392 628.869 135.941 629.552 134.32L664.24 56.496C665.093 54.448 666.16 52.9973 667.44 52.144C668.805 51.2907 670.298 50.864 671.92 50.864C673.456 50.864 674.864 51.2907 676.144 52.144C677.509 52.9973 678.618 54.448 679.472 56.496L714.16 134.32C714.928 135.941 715.226 137.435 715.056 138.8C714.885 140.08 714.33 141.104 713.392 141.872C712.453 142.555 711.13 142.896 709.424 142.896C707.546 142.896 706.053 142.427 704.944 141.488C703.834 140.549 702.853 139.099 702 137.136L693.04 116.4L699.056 119.984H644.528L650.416 116.4L641.583 137.136C640.73 139.184 639.792 140.677 638.768 141.616C637.744 142.469 636.378 142.896 634.672 142.896ZM671.664 66.48L652.336 112.304L649.136 109.232H694.32L691.376 112.304L671.92 66.48H671.664ZM758.639 143.152C754.713 143.152 750.873 142.853 747.119 142.256C743.364 141.659 739.823 140.763 736.495 139.568C733.167 138.288 730.18 136.752 727.535 134.96C726.255 134.021 725.359 132.955 724.847 131.76C724.42 130.565 724.292 129.413 724.463 128.304C724.719 127.109 725.231 126.085 725.999 125.232C726.767 124.379 727.705 123.867 728.815 123.696C729.924 123.44 731.161 123.781 732.527 124.72C736.367 127.195 740.42 129.029 744.687 130.224C748.953 131.333 753.604 131.888 758.639 131.888C765.892 131.888 771.225 130.608 774.639 128.048C778.137 125.403 779.887 121.989 779.887 117.808C779.887 114.395 778.649 111.707 776.175 109.744C773.7 107.696 769.561 106.075 763.759 104.88L750.062 102.064C741.956 100.357 735.897 97.5413 731.887 93.616C727.961 89.6907 725.999 84.4 725.999 77.744C725.999 73.7333 726.809 70.064 728.431 66.736C730.137 63.408 732.484 60.5493 735.471 58.16C738.457 55.6853 742.041 53.808 746.223 52.528C750.404 51.248 754.969 50.608 759.919 50.608C765.209 50.608 770.159 51.2907 774.767 52.656C779.46 54.0213 783.641 56.112 787.311 58.928C788.42 59.696 789.145 60.6773 789.487 61.872C789.913 62.9813 789.999 64.0907 789.743 65.2C789.572 66.3093 789.103 67.248 788.335 68.016C787.567 68.784 786.585 69.2533 785.391 69.424C784.196 69.5093 782.873 69.0827 781.423 68.144C778.095 65.9253 774.681 64.3467 771.183 63.408C767.769 62.384 763.972 61.872 759.791 61.872C755.609 61.872 751.94 62.512 748.783 63.792C745.711 65.072 743.321 66.864 741.615 69.168C739.993 71.472 739.183 74.2027 739.183 77.36C739.183 80.944 740.335 83.8027 742.639 85.936C744.943 88.0693 748.783 89.6907 754.159 90.8L767.727 93.616C776.26 95.408 782.617 98.1813 786.799 101.936C790.98 105.691 793.071 110.683 793.071 116.912C793.071 120.923 792.26 124.549 790.639 127.792C789.017 130.949 786.713 133.68 783.727 135.984C780.74 138.288 777.113 140.08 772.847 141.36C768.665 142.555 763.929 143.152 758.639 143.152ZM814.84 142.896C812.706 142.896 811.042 142.299 809.848 141.104C808.738 139.909 808.184 138.245 808.184 136.112V57.52C808.184 55.3013 808.738 53.6373 809.848 52.528C811.042 51.4187 812.706 50.864 814.84 50.864C816.973 50.864 818.594 51.4187 819.704 52.528C820.898 53.6373 821.496 55.3013 821.496 57.52V92.336H821.752L861.048 54.32C862.328 53.1253 863.522 52.272 864.632 51.76C865.826 51.1627 867.149 50.864 868.6 50.864C870.562 50.864 871.97 51.376 872.824 52.4C873.762 53.3387 874.146 54.4907 873.976 55.856C873.805 57.2213 873.08 58.544 871.8 59.824L830.968 98.736L831.224 92.208L873.72 133.168C875.256 134.619 876.066 136.112 876.152 137.648C876.237 139.184 875.768 140.464 874.744 141.488C873.72 142.427 872.269 142.896 870.392 142.896C868.685 142.896 867.32 142.555 866.296 141.872C865.272 141.189 864.077 140.208 862.712 138.928L821.752 99.888H821.496V136.112C821.496 138.245 820.941 139.909 819.832 141.104C818.722 142.299 817.058 142.896 814.84 142.896Z" fill="black"/>
<path d="M10.748 0.0285739L190.748 13.5286C195.966 13.92 200 18.2676 200 23.5003V174.944C200 180.176 195.966 184.525 190.748 184.916L10.748 198.416C4.94683 198.851 0 194.261 0 188.444V10.0003C1.2029e-05 4.18275 4.94684 -0.406517 10.748 0.0285739ZM100.376 133.24C98.4587 135.148 97.0872 137.527 96.752 140.204C96.422 142.835 96.0967 146.803 96.0889 152.269C96.0879 152.919 96.2155 153.564 96.4648 154.165C96.7143 154.767 97.0812 155.314 97.543 155.774C98.0047 156.234 98.5529 156.598 99.1562 156.847C99.7598 157.096 100.407 157.223 101.06 157.222C106.544 157.212 110.525 156.891 113.162 156.562C115.851 156.225 118.239 154.86 120.154 152.949L144.085 129.101C143.967 128.846 143.878 128.58 143.817 128.306C143.765 128.128 143.706 127.951 143.641 127.778C143.333 126.957 142.967 126.16 142.544 125.393C141.401 123.27 139.311 120.129 135.611 116.442C131.909 112.752 128.757 110.673 126.629 109.533C126.087 109.242 125.533 108.974 124.967 108.731L100.376 133.24ZM91.667 41.2219C75.2588 41.2219 63.9324 42.0583 56.8027 42.8713C49.2807 43.7259 43.5671 49.4256 42.7383 56.9348C41.8912 64.5839 41 77.2931 41 96.8948C41 116.496 41.8913 129.205 42.7383 136.854C43.5697 144.363 49.2807 150.06 56.8027 150.917C63.4336 151.673 73.6945 152.449 88.2969 152.553V152.256C88.3047 146.49 88.6451 142.207 89.0166 139.244C89.6142 134.493 92.0043 130.596 94.8623 127.747L130.152 92.5754C132.964 89.7738 137.42 87.4384 142.266 87.762C142.238 85.9908 142.204 84.2874 142.162 82.6526C140.333 82.6526 138.023 82.6472 135.511 82.6213C129.61 82.5618 122.407 82.3938 117.668 81.9407C109.008 81.1121 102.273 74.2346 101.438 65.5628C100.984 60.8371 100.829 53.7158 100.779 47.8948C100.759 45.4039 100.758 43.1175 100.764 41.3128C97.923 41.2541 94.8905 41.2237 91.667 41.2219ZM144.354 96.3372C141.447 94.6726 138.036 95.7056 135.666 98.0696L130.776 102.941C133.525 104.468 137.114 106.954 141.123 110.947C145.363 115.172 147.907 118.928 149.411 121.719C149.674 122.211 149.908 122.671 150.11 123.099L155.447 117.781C157.817 115.419 158.85 112.019 157.18 109.121C156.034 107.133 154.262 104.662 151.544 101.956C148.829 99.248 146.347 97.4816 144.354 96.3372ZM83.125 84.6555C84.3143 84.4585 85.5337 84.7402 86.5146 85.4387C87.4958 86.1372 88.1581 87.1959 88.3564 88.3811C88.5547 89.5662 88.2727 90.7812 87.5723 91.759L74.5801 109.885C74.1962 110.42 73.7001 110.866 73.126 111.191C72.5519 111.516 71.9138 111.713 71.2559 111.767C70.5981 111.821 69.9361 111.731 69.3164 111.505C68.6966 111.279 68.1329 110.92 67.666 110.455L57.2734 100.097C56.8328 99.6805 56.4799 99.1806 56.2363 98.6262C55.9928 98.0719 55.8635 97.4745 55.8555 96.8694C55.8474 96.2642 55.9608 95.6635 56.1895 95.1028C56.4181 94.5422 56.7571 94.0327 57.1865 93.6047C57.6158 93.1769 58.127 92.8395 58.6895 92.6116C59.252 92.3837 59.8548 92.2706 60.4619 92.2786C61.0692 92.2866 61.6693 92.4158 62.2256 92.6585C62.7817 92.9012 63.2834 93.2526 63.7012 93.6917L70.3008 100.266L80.1719 86.4905C80.8731 85.513 81.9356 84.8527 83.125 84.6555ZM83.1191 56.2122C84.3006 56.0231 85.5097 56.3062 86.4834 56.9993C87.4568 57.6922 88.1174 58.7396 88.3213 59.9143C88.5251 61.0891 88.2558 62.2972 87.5723 63.2756L74.5801 81.4016C74.1962 81.9369 73.7001 82.3824 73.126 82.7073C72.5519 83.0321 71.9138 83.2292 71.2559 83.2835C70.5981 83.3377 69.9361 83.2481 69.3164 83.0217C68.6966 82.7953 68.1329 82.4371 67.666 81.9719L57.2734 71.6135C56.8391 71.1956 56.4923 70.6956 56.2539 70.1428C56.0156 69.5901 55.8901 68.9954 55.8848 68.3938C55.8795 67.7923 55.9942 67.1957 56.2227 66.6389C56.4512 66.082 56.789 65.5762 57.2158 65.1506C57.6427 64.7251 58.1502 64.3884 58.709 64.1604C59.2676 63.9325 59.8661 63.8174 60.4697 63.8225C61.0735 63.8276 61.6708 63.9523 62.2256 64.1897C62.7803 64.4271 63.2817 64.7727 63.7012 65.2053L70.2988 71.7825L80.1719 58.009C80.8788 57.0471 81.9378 56.4013 83.1191 56.2122ZM108.556 42.5501C108.556 44.0985 108.559 45.9012 108.574 47.8303C108.624 53.6692 108.782 60.4739 109.197 64.8215C109.686 69.8916 113.573 73.7448 118.411 74.2083C122.776 74.6251 129.669 74.7936 135.588 74.8557C137.674 74.8764 139.615 74.8821 141.255 74.8821C139.714 71.2751 135.973 64.6717 127.142 56.0413C118.819 47.9105 112.347 44.2047 108.556 42.5501Z" fill="black"/>
</svg>
