<svg width="200" height="199" viewBox="0 0 200 199" fill="none" xmlns="http://www.w3.org/2000/svg">
<path d="M10.748 0.0285739L190.748 13.5286C195.966 13.92 200 18.2676 200 23.5003V174.944C200 180.176 195.966 184.525 190.748 184.916L10.748 198.416C4.94683 198.851 0 194.261 0 188.444V10.0003C1.2029e-05 4.18275 4.94684 -0.406517 10.748 0.0285739ZM100.376 133.24C98.4587 135.148 97.0872 137.527 96.752 140.204C96.422 142.835 96.0967 146.803 96.0889 152.269C96.0879 152.919 96.2155 153.564 96.4648 154.165C96.7143 154.767 97.0812 155.314 97.543 155.774C98.0047 156.234 98.5529 156.598 99.1562 156.847C99.7598 157.096 100.407 157.223 101.06 157.222C106.544 157.212 110.525 156.891 113.162 156.562C115.851 156.225 118.239 154.86 120.154 152.949L144.085 129.101C143.967 128.846 143.878 128.58 143.817 128.306C143.765 128.128 143.706 127.951 143.641 127.778C143.333 126.957 142.967 126.16 142.544 125.393C141.401 123.27 139.311 120.129 135.611 116.442C131.909 112.752 128.757 110.673 126.629 109.533C126.087 109.242 125.533 108.974 124.967 108.731L100.376 133.24ZM91.667 41.2219C75.2588 41.2219 63.9324 42.0583 56.8027 42.8713C49.2807 43.7259 43.5671 49.4256 42.7383 56.9348C41.8912 64.5839 41 77.2931 41 96.8948C41 116.496 41.8913 129.205 42.7383 136.854C43.5697 144.363 49.2807 150.06 56.8027 150.917C63.4336 151.673 73.6945 152.449 88.2969 152.553V152.256C88.3047 146.49 88.6451 142.207 89.0166 139.244C89.6142 134.493 92.0043 130.596 94.8623 127.747L130.152 92.5754C132.964 89.7738 137.42 87.4384 142.266 87.762C142.238 85.9908 142.204 84.2874 142.162 82.6526C140.333 82.6526 138.023 82.6472 135.511 82.6213C129.61 82.5618 122.407 82.3938 117.668 81.9407C109.008 81.1121 102.273 74.2346 101.438 65.5628C100.984 60.8371 100.829 53.7158 100.779 47.8948C100.759 45.4039 100.758 43.1175 100.764 41.3128C97.923 41.2541 94.8905 41.2237 91.667 41.2219ZM144.354 96.3372C141.447 94.6726 138.036 95.7056 135.666 98.0696L130.776 102.941C133.525 104.468 137.114 106.954 141.123 110.947C145.363 115.172 147.907 118.928 149.411 121.719C149.674 122.211 149.908 122.671 150.11 123.099L155.447 117.781C157.817 115.419 158.85 112.019 157.18 109.121C156.034 107.133 154.262 104.662 151.544 101.956C148.829 99.248 146.347 97.4816 144.354 96.3372ZM83.125 84.6555C84.3143 84.4585 85.5337 84.7402 86.5146 85.4387C87.4958 86.1372 88.1581 87.1959 88.3564 88.3811C88.5547 89.5662 88.2727 90.7812 87.5723 91.759L74.5801 109.885C74.1962 110.42 73.7001 110.866 73.126 111.191C72.5519 111.516 71.9138 111.713 71.2559 111.767C70.5981 111.821 69.9361 111.731 69.3164 111.505C68.6966 111.279 68.1329 110.92 67.666 110.455L57.2734 100.097C56.8328 99.6805 56.4799 99.1806 56.2363 98.6262C55.9928 98.0719 55.8635 97.4745 55.8555 96.8694C55.8474 96.2642 55.9608 95.6635 56.1895 95.1028C56.4181 94.5422 56.7571 94.0327 57.1865 93.6047C57.6158 93.1769 58.127 92.8395 58.6895 92.6116C59.252 92.3837 59.8548 92.2706 60.4619 92.2786C61.0692 92.2866 61.6693 92.4158 62.2256 92.6585C62.7817 92.9012 63.2834 93.2526 63.7012 93.6917L70.3008 100.266L80.1719 86.4905C80.8731 85.513 81.9356 84.8527 83.125 84.6555ZM83.1191 56.2122C84.3006 56.0231 85.5097 56.3062 86.4834 56.9993C87.4568 57.6922 88.1174 58.7396 88.3213 59.9143C88.5251 61.0891 88.2558 62.2972 87.5723 63.2756L74.5801 81.4016C74.1962 81.9369 73.7001 82.3824 73.126 82.7073C72.5519 83.0321 71.9138 83.2292 71.2559 83.2835C70.5981 83.3377 69.9361 83.2481 69.3164 83.0217C68.6966 82.7953 68.1329 82.4371 67.666 81.9719L57.2734 71.6135C56.8391 71.1956 56.4923 70.6956 56.2539 70.1428C56.0156 69.5901 55.8901 68.9954 55.8848 68.3938C55.8795 67.7923 55.9942 67.1957 56.2227 66.6389C56.4512 66.082 56.789 65.5762 57.2158 65.1506C57.6427 64.7251 58.1502 64.3884 58.709 64.1604C59.2676 63.9325 59.8661 63.8174 60.4697 63.8225C61.0735 63.8276 61.6708 63.9523 62.2256 64.1897C62.7803 64.4271 63.2817 64.7727 63.7012 65.2053L70.2988 71.7825L80.1719 58.009C80.8788 57.0471 81.9378 56.4013 83.1191 56.2122ZM108.556 42.5501C108.556 44.0985 108.559 45.9012 108.574 47.8303C108.624 53.6692 108.782 60.4739 109.197 64.8215C109.686 69.8916 113.573 73.7448 118.411 74.2083C122.776 74.6251 129.669 74.7936 135.588 74.8557C137.674 74.8764 139.615 74.8821 141.255 74.8821C139.714 71.2751 135.973 64.6717 127.142 56.0413C118.819 47.9105 112.347 44.2047 108.556 42.5501Z" fill="black"/>
</svg>
